<?xml version="1.0" encoding="utf-8"?>
<!-- Generator: Adobe Illustrator 27.0.0, SVG Export Plug-In . SVG Version: 6.00 Build 0)  -->
<svg version="1.1" xmlns="http://www.w3.org/2000/svg" xmlns:xlink="http://www.w3.org/1999/xlink" x="0px" y="0px"
	 viewBox="0 0 1080 429.17" style="enable-background:new 0 0 1080 429.17;" xml:space="preserve">
<style type="text/css">
	.st0{fill:url(#SVGID_1_);}
	.st1{fill:#004180;}
</style>
<g id="Layer_13">
	
		<linearGradient id="SVGID_1_" gradientUnits="userSpaceOnUse" x1="82.5043" y1="222.1548" x2="228.3504" y2="222.1548" gradientTransform="matrix(1 0 0 -1 0 431.1724)">
		<stop  offset="0" style="stop-color:#F80180"/>
		<stop  offset="1" style="stop-color:#F88001"/>
	</linearGradient>
	<path class="st0" d="M228.35,213.71c-5.63,7.02-9.86,13.27-15.36,19.47c-4.51-3.42-9.02-6.81-13.49-10.24
		c-1.29-0.98-2.64-1.97-4.2-2.34c-2.92-0.68-5.76,0.95-8.41,2.37c-18.41,9.9-41.05,11.53-60.71,4.37
		c-19.64-7.15-35.95-22.98-43.68-42.41c7.83,0,15.61-0.1,23.47-0.1l2.63,0.03l1.29,2c7.83,10.95,20.1,18.61,33.39,20.81
		c13.25,2.2,27.36-1.02,38.34-8.81c2.37-1.73,4.68-3.66,7.22-5.12c0.85-0.51,1.73-0.92,2.64-1.29c2.2-0.85,4.68-1.15,6.98-0.61
		c2.31,0.51,4,2.14,5.9,3.42c0.07,0.03,0.1,0.07,0.14,0.14L228.35,213.71z"/>
</g>
<g id="Layer_12">
	<path class="st1" d="M222.21,180.93c-0.61,2.2-1.32,4.41-2.14,6.58c-0.07,0.17-0.1,0.37-0.17,0.54c-0.03,0.17-0.1,0.34-0.2,0.51
		c-0.51,1.42-0.88,2.2-1.46,3.19c-7.31-7.05-16.71-10.54-20.98-11.63l0.54-1.05c3.58-6.88,4.37-14.9,4.54-22.54
		c0.19-8.68,0.14-17.34-0.32-26.02c-0.02-0.19-0.02-0.36-0.03-0.54c-0.39-7.1-1.08-14.17-3.9-20.78
		c-3.02-6.78-7.58-12.86-13.25-17.66c-0.29-0.24-0.58-0.47-0.86-0.71C175.33,83.83,164.38,80,153.27,80h-3.02
		c-27.05,0-49.02,22-49.02,49.02v30.14c0,9.46,3.29,17.51,7.39,25.71l-26.12,0.07c-3.08-7.97-4.75-16.68-4.75-25.76v-30.14
		c0-39.97,32.51-72.44,72.47-72.44h3.02c20.37,0,40.07,8.78,53.73,23.86c10.76,11.85,16.92,26.56,18.3,42.44
		c0.24,2.64,0.37,5.29,0.46,7.93C226.27,147.42,226.69,164.8,222.21,180.93z"/>
</g>
<g id="Layer_10">
	<path class="st1" d="M364.37,102.66c-6.17-11.88-15.24-21.03-26.93-27.3c-11.59-6.17-25.56-9.3-41.41-9.3h-40.66v156.83h40.66
		c24.14,0,43.32-6.98,56.95-20.8c13.63-13.78,20.56-33.1,20.56-57.37C373.54,128.49,370.43,114.39,364.37,102.66z M335.06,187.19
		c-9.36,9.12-22.66,13.73-39.51,13.73h-16.68V88.21h16.68c16.86,0,30.15,4.61,39.51,13.73c9.36,9.07,14.1,23.46,14.1,42.75
		C349.16,163.83,344.42,178.12,335.06,187.19z"/>
</g>
<g id="Layer_9">
	<path class="st1" d="M465.21,188.49c-3.14,5.22-7.34,9.36-12.47,12.29c-5.14,2.92-11.8,4.41-19.83,4.41
		c-9.66,0-17.03-3.19-22.58-9.75c-4.81-5.71-7.81-12.51-8.93-20.27h83.78l0.36-3.69c0.15-1.61,0.24-3.88,0.24-6.76
		c0-10.3-2.31-19.8-6.86-28.2c-4.58-8.44-10.98-15.2-19.05-20.1l0,0c-8.08-4.92-17.22-7.41-27.17-7.41
		c-10.53,0-20.08,2.56-28.39,7.63c-8.3,5.07-14.88,12.19-19.51,21.17c-4.61,8.9-6.95,19.07-6.95,30.22
		c0,11.17,2.37,21.34,7.07,30.25c4.73,8.98,11.37,16.1,19.75,21.15c8.37,5.05,18.03,7.63,28.69,7.63c11.47,0,21.59-2.36,30.08-6.98
		c8.47-4.63,15.41-11.12,20.61-19.29l2.15-3.37l-18.78-12.51L465.21,188.49z M402.91,154.65c1.81-6.25,4.93-11.61,9.29-15.97
		c5.32-5.32,12.03-7.92,20.51-7.92c8.81,0,15.51,2.25,20.49,6.92c4.15,3.88,7.07,9.58,8.68,16.97H402.91z"/>
</g>
<g id="Layer_8">
	<path class="st1" d="M577.97,121.17c-2.95-2.66-6.19-4.93-9.69-6.8c-6.8-3.59-14.36-5.42-22.46-5.42
		c-10.53,0-20.08,2.56-28.39,7.63c-8.3,5.07-14.86,12.14-19.51,21.03c-4.61,8.83-6.95,18.97-6.95,30.12
		c0,11.3,2.37,21.56,7.07,30.47c4.73,8.98,11.37,16.1,19.75,21.15c8.37,5.05,17.97,7.63,28.47,7.63c7.97,0,15.41-1.83,22.15-5.42
		c3.46-1.85,6.64-4.08,9.58-6.71v0.56c0,9.02-2.44,16.19-7.44,21.92c-4.86,5.56-11.02,8.27-18.78,8.27h-35.81
		c-6.02,0-10.9,4.9-10.9,10.92c0,6.02,4.9,10.9,10.9,10.9h35.81c9.49,0,18.1-2.27,25.61-6.73c7.51-4.47,13.41-10.75,17.56-18.64
		c4.1-7.81,6.19-16.76,6.19-26.61V112.48h-23.14v8.69H577.97z M573.77,148.46c2.78,5.71,4.2,12.27,4.2,19.51s-1.41,13.81-4.19,19.51
		c-2.76,5.66-6.49,9.95-11.37,13.07c-4.8,3.07-10.37,4.63-16.58,4.63c-6.14,0-11.44-1.51-16.22-4.61
		c-4.83-3.12-8.53-7.41-11.29-13.08c-2.78-5.69-4.19-12.34-4.19-19.73c0-7.24,1.41-13.76,4.19-19.39c2.78-5.61,6.47-9.86,11.3-12.98
		c4.78-3.1,10.08-4.61,16.22-4.61c6.29,0,11.71,1.51,16.58,4.63C567.3,138.53,571.01,142.8,573.77,148.46z"/>
</g>
<g id="Layer_7">
	<path class="st1" d="M769.46,188.49c-3.14,5.22-7.32,9.36-12.46,12.27c-5.14,2.92-11.8,4.41-19.83,4.41
		c-9.66,0-17.03-3.19-22.58-9.75c-4.81-5.71-7.81-12.51-8.93-20.27h83.78l0.36-3.69c0.15-1.61,0.24-3.88,0.24-6.76
		c0-10.3-2.31-19.8-6.86-28.2c-4.58-8.44-10.98-15.2-19.05-20.1l0,0c-8.08-4.92-17.24-7.41-27.17-7.41
		c-10.53,0-20.08,2.56-28.39,7.63c-8.3,5.07-14.88,12.19-19.51,21.17c-4.61,8.88-6.95,19.05-6.95,30.22s2.37,21.36,7.07,30.25
		c4.73,8.98,11.37,16.1,19.75,21.15c8.37,5.05,18.03,7.63,28.69,7.63c11.47,0,21.59-2.36,30.08-6.98
		c8.47-4.63,15.42-11.12,20.61-19.29l2.15-3.39l-18.78-12.51L769.46,188.49z M707.16,154.65c1.81-6.25,4.93-11.61,9.29-15.97
		c5.32-5.32,12.03-7.92,20.51-7.92c8.81,0,15.51,2.25,20.49,6.92c4.15,3.88,7.07,9.59,8.68,16.97H707.16z"/>
</g>
<g id="Layer_6">
	<path class="st1" d="M882.6,188.49c-3.14,5.22-7.32,9.36-12.46,12.27c-5.14,2.92-11.8,4.41-19.83,4.41
		c-9.66,0-17.03-3.19-22.58-9.75c-4.81-5.71-7.81-12.51-8.93-20.27h83.76l0.37-3.69c0.17-1.63,0.24-3.83,0.24-6.78
		c0-10.3-2.31-19.8-6.86-28.2c-4.58-8.44-10.98-15.2-19.05-20.1l0,0c-8.08-4.92-17.22-7.41-27.17-7.41
		c-10.53,0-20.08,2.56-28.39,7.63c-8.3,5.07-14.88,12.19-19.53,21.17c-4.61,8.9-6.93,19.07-6.93,30.22
		c0,11.17,2.37,21.34,7.07,30.25c4.73,8.98,11.37,16.1,19.75,21.15c8.37,5.05,18.03,7.63,28.69,7.63c11.47,0,21.61-2.36,30.08-6.98
		c8.47-4.63,15.41-11.12,20.61-19.29l2.15-3.37l-18.78-12.51L882.6,188.49z M820.29,154.65c1.81-6.25,4.93-11.61,9.29-15.97
		c5.32-5.32,12.03-7.92,20.51-7.92c8.81,0,15.51,2.25,20.49,6.92c4.15,3.88,7.07,9.58,8.68,16.97H820.29z"/>
</g>
<g id="Layer_5">
	<path class="st1" d="M991.17,166.66c-6.98-5.69-17.53-9.22-31.36-10.47c-12.17-1.02-17.76-3.34-20.3-5.1
		c-3.22-2.24-4.73-4.9-4.73-8.39c0-3.78,1.36-6.47,4.27-8.49c3.31-2.29,8.41-3.44,15.14-3.44c6.69,0,12.17,1.22,16.27,3.61
		c4.02,2.36,7.02,5.97,9.17,11.03l1.69,3.98l20.85-10.25l-1.64-3.61c-8.02-17.63-23.24-26.56-45.25-26.56
		c-12.88,0-23.25,2.95-30.83,8.75c-7.92,6.07-11.93,14.63-11.93,25.44c0,9.73,3.56,17.66,10.58,23.56
		c6.8,5.75,17.42,9.15,32.49,10.41c11.59,1,16.81,3.24,19.15,4.95c2.93,2.14,4.36,5.44,4.36,10.08c0,4.36-1.71,7.34-5.37,9.39
		c-4.34,2.42-10.02,3.66-16.9,3.66c-14.22,0-23.42-4.92-28.14-15l-1.76-3.78l-20.86,10.27l1.88,3.69
		c4.31,8.46,10.66,15.1,18.88,19.73c8.14,4.58,17.64,6.9,28.25,6.9c8.07,0,15.73-1.34,22.76-4c7.25-2.75,13.15-6.9,17.56-12.36
		c4.54-5.63,6.85-12.44,6.85-20.25C1002.24,180.64,998.51,172.66,991.17,166.66z"/>
</g>
<g id="Layer_4">
	<path class="st1" d="M694.01,118.59c0,0-8.8,6.29-10.86,16.1l-5.86-2.8c-2.49-1.19-5.31-1.8-8.34-1.8
		c-5.54,0-10.56,1.51-15.36,4.61c-4.75,3.1-8.66,7.69-11.61,13.64c-3,6.08-4.51,13.41-4.51,21.81v53.29h-23.14v-111h23.14v11.39
		c2.61-3,5.49-5.59,8.59-7.76c6.76-4.71,14.46-7.14,22.9-7.14c3.93,0,7.71,0.59,11.34,1.75l2.39,0.75c0,0,0,0,0.02,0
		c0.15,0.08,0.31,0.14,0.46,0.2C688.58,113.9,694.01,118.59,694.01,118.59z"/>
</g>
<g id="Layer_2">
	<g>
		<g>
			<path d="M88.86,313.59c0-9.62,2.47-17.12,7.41-22.5s11.13-8.07,18.57-8.07c7.44,0,13.27,2.04,17.49,6.12
				c4.22,4.08,6.33,8.99,6.33,14.75v0.43h-8.24v-0.43c0-3.98-1.29-7.28-3.86-9.9c-2.58-2.62-6.48-3.93-11.72-3.93
				c-5.12,0-9.34,1.93-12.66,5.8c-3.32,3.86-4.98,9.77-4.98,17.73v3.95c0,7.33,1.65,13.08,4.96,17.26
				c3.31,4.18,7.53,6.27,12.69,6.27c4.92,0,8.64-1.33,11.16-3.99c2.52-2.66,3.98-5.94,4.38-9.83l0.04-0.43h8.24l-0.04,0.43
				c-0.57,5.72-2.82,10.63-6.74,14.73c-3.92,4.09-9.6,6.14-17.04,6.14c-7.44,0-13.63-2.69-18.57-8.07s-7.41-12.88-7.41-22.5V313.59z
				"/>
			<path d="M165.83,312.21h0.6l17.04-27.91h9.1l-21.42,33.74h-0.6l-18.12,28.76h-9.1L165.83,312.21z M153.69,284.31l17.04,27.91
				h0.43l22.5,34.6h-9.27l-18.12-28.76h-0.43l-21.42-33.74H153.69z"/>
			<path d="M202.63,350.55c0.74-1.92,1.12-4.17,1.12-6.74v-6.44h7.73v6.44c0,3.15-0.69,6.04-2.06,8.67
				c-1.37,2.63-3.19,4.91-5.45,6.83l-4.51-3.13C200.82,354.34,201.88,352.47,202.63,350.55z"/>
			<path d="M246.03,313.59c0-9.62,2.47-17.12,7.41-22.5s11.27-8.07,19-8.07c7.73,0,14.06,2.69,19,8.07
				c4.94,5.38,7.41,12.88,7.41,22.5v3.95c0,9.62-2.47,17.12-7.41,22.5c-4.94,5.38-11.27,8.07-19,8.07c-7.73,0-14.06-2.69-19-8.07
				s-7.41-12.88-7.41-22.5V313.59z M259.32,334.8c3.31,4.18,7.68,6.27,13.12,6.27c5.44,0,9.81-2.09,13.12-6.27s4.96-9.93,4.96-17.26
				v-3.95c0-7.33-1.65-13.08-4.96-17.26s-7.68-6.27-13.12-6.27c-5.44,0-9.81,2.09-13.12,6.27c-3.31,4.18-4.96,9.93-4.96,17.26v3.95
				C254.36,324.86,256.01,330.62,259.32,334.8z"/>
			<path d="M309.7,301.65h7.99v29.24c0,3.61,0.81,6.19,2.43,7.75c1.62,1.56,3.91,2.34,6.89,2.34c2.55,0,4.79-0.69,6.74-2.06
				c1.95-1.37,3.46-3.15,4.55-5.32v-31.94h7.98v45.16h-7.21l-0.34-5.8h-0.26c-1.63,2.06-3.63,3.69-5.99,4.87s-4.97,1.78-7.83,1.78
				c-4.55,0-8.18-1.29-10.88-3.88c-2.7-2.59-4.06-6.92-4.06-12.99V301.65z"/>
			<path d="M358.98,301.65h7.21l0.34,5.8h0.26c1.14-1.89,2.65-3.54,4.51-4.96c1.86-1.42,4.08-2.12,6.65-2.12
				c0.63,0,1.29,0.07,1.97,0.21c0.69,0.14,1.17,0.27,1.46,0.39v7.38c-0.57-0.11-1.17-0.2-1.8-0.26c-0.63-0.06-1.32-0.09-2.06-0.09
				c-2.58,0-4.77,0.67-6.57,2.02c-1.8,1.35-3.13,3.02-3.99,5.02v31.77h-7.99V301.65z"/>
			<path d="M408.01,329.22h8.24v0.51c0,3.78,1.27,6.61,3.82,8.5c2.55,1.89,6.11,2.83,10.69,2.83c4.58,0,8.08-0.97,10.52-2.92
				c2.43-1.95,3.65-4.49,3.65-7.64c0-2.86-1.18-5.15-3.54-6.87c-2.36-1.72-6.82-3.52-13.37-5.41c-6.81-1.97-11.63-4.29-14.47-6.93
				s-4.25-6.4-4.25-11.27c0-4.87,1.86-8.92,5.58-12.15c3.72-3.23,8.87-4.85,15.46-4.85s11.82,1.7,15.71,5.11
				c3.89,3.41,5.84,7.74,5.84,13.01v0.51h-8.24v-0.51c0-3.32-1.12-6-3.35-8.03s-5.55-3.05-9.96-3.05c-4.41,0-7.66,0.87-9.75,2.62
				c-2.09,1.75-3.13,4.12-3.13,7.13c0,2.72,1.07,4.87,3.22,6.44c2.15,1.57,6.57,3.31,13.27,5.19c6.7,1.89,11.56,4.25,14.6,7.08
				c3.03,2.83,4.55,6.83,4.55,11.98c0,5.15-2,9.37-6.01,12.67c-4.01,3.29-9.45,4.94-16.31,4.94c-6.87,0-12.38-1.65-16.53-4.94
				c-4.15-3.29-6.23-7.77-6.23-13.44V329.22z"/>
			<path d="M460.17,323.55c0-6.81,1.87-12.38,5.6-16.7c3.73-4.32,8.68-6.48,14.83-6.48c6.15,0,10.89,2.02,14.21,6.05
				c3.32,4.04,4.98,9.49,4.98,16.36v3.26h-34.73v-6.35h26.7v-1.03c0-3.26-0.93-6.04-2.79-8.33c-1.86-2.29-4.54-3.43-8.03-3.43
				c-4.24,0-7.4,1.61-9.49,4.83c-2.09,3.22-3.13,7.16-3.13,11.83v1.37c0,4.67,1.1,8.61,3.31,11.83c2.2,3.22,5.62,4.83,10.26,4.83
				c2.86,0,5.32-0.63,7.38-1.89c2.06-1.26,3.73-2.75,5.02-4.46l5.15,4.08c-1.43,2.15-3.64,4.15-6.63,6.01
				c-2.99,1.86-6.63,2.79-10.93,2.79c-7.01,0-12.39-2.16-16.12-6.48c-3.74-4.32-5.6-9.89-5.6-16.7V323.55z"/>
			<path d="M506.88,323.55c0-6.81,1.85-12.38,5.56-16.7c3.71-4.32,8.81-6.48,15.3-6.48c6.01,0,10.58,1.62,13.7,4.87
				c3.12,3.25,4.68,6.88,4.68,10.88v0.21h-7.73v-0.21c0-2.43-0.84-4.58-2.53-6.44c-1.69-1.86-4.39-2.79-8.11-2.79
				c-4.35,0-7.56,1.61-9.62,4.83c-2.06,3.22-3.09,7.16-3.09,11.83v1.37c0,4.67,1.03,8.61,3.09,11.83c2.06,3.22,5.27,4.83,9.62,4.83
				c3.72,0,6.43-0.93,8.11-2.79c1.69-1.86,2.53-4.01,2.53-6.44v-0.21h7.73v0.21c0,4.01-1.56,7.63-4.68,10.88
				c-3.12,3.25-7.68,4.87-13.7,4.87c-6.5,0-11.6-2.16-15.3-6.48c-3.71-4.32-5.56-9.89-5.56-16.7V323.55z"/>
			<path d="M552.73,323.55c0-6.81,1.93-12.38,5.8-16.7c3.86-4.32,9.03-6.48,15.5-6.48c6.47,0,11.63,2.16,15.5,6.48
				c3.86,4.32,5.8,9.89,5.8,16.7v1.37c0,6.81-1.93,12.38-5.8,16.7c-3.86,4.32-9.03,6.48-15.5,6.48c-6.47,0-11.63-2.16-15.5-6.48
				c-3.86-4.32-5.8-9.89-5.8-16.7V323.55z M560.89,324.92c0,4.67,1.1,8.61,3.31,11.83c2.2,3.22,5.48,4.83,9.83,4.83
				c4.35,0,7.63-1.61,9.83-4.83s3.31-7.16,3.31-11.83v-1.37c0-4.67-1.1-8.61-3.31-11.83s-5.48-4.83-9.83-4.83
				c-4.35,0-7.63,1.61-9.83,4.83c-2.21,3.22-3.31,7.16-3.31,11.83V324.92z"/>
			<path d="M605.32,301.65h7.21l0.34,5.8h0.26c1.63-2.06,3.63-3.68,5.99-4.87c2.36-1.19,4.97-1.78,7.83-1.78
				c4.55,0,8.18,1.29,10.88,3.88c2.71,2.59,4.06,6.92,4.06,12.99v29.15h-7.99v-29.24c0-3.61-0.81-6.19-2.43-7.75
				c-1.62-1.56-3.91-2.34-6.89-2.34c-2.55,0-4.79,0.69-6.74,2.06s-3.46,3.15-4.55,5.32v31.94h-7.99V301.65z"/>
			<path d="M651.48,323.55c0-6.58,1.72-12.02,5.15-16.31s8.01-6.44,13.74-6.44c3.15,0,5.83,0.57,8.05,1.7
				c2.22,1.13,3.99,2.63,5.3,4.49v-26.1h7.99v65.94h-7.21l-0.34-5.88h-0.26c-1.15,1.86-2.9,3.45-5.26,4.77s-5.12,1.97-8.26,1.97
				c-5.72,0-10.3-2.15-13.74-6.44s-5.15-9.73-5.15-16.31V323.55z M662.64,336.47c2,3.12,5.15,4.68,9.44,4.68
				c2.86,0,5.29-0.79,7.3-2.36c2-1.57,3.45-3.36,4.34-5.37v-18.38c-0.89-2-2.33-3.79-4.34-5.37c-2-1.57-4.44-2.36-7.3-2.36
				c-4.29,0-7.44,1.56-9.44,4.68c-2,3.12-3,6.97-3,11.55v1.37C659.63,329.5,660.63,333.35,662.64,336.47z"/>
			<path d="M726.82,284.31h8.59l28.29,43.79c0.57,0.86,1.11,1.72,1.61,2.58c0.5,0.86,0.92,1.65,1.27,2.36h0.34
				c-0.03-0.86-0.05-1.82-0.06-2.9c-0.01-1.07-0.02-2.04-0.02-2.9v-42.93h8.07v62.51h-8.59l-28.29-43.79
				c-0.57-0.86-1.1-1.72-1.59-2.58c-0.49-0.86-0.93-1.65-1.33-2.36h-0.3c0.03,0.86,0.05,1.83,0.06,2.9s0.02,2.04,0.02,2.9v42.93
				h-8.07V284.31z"/>
			<path d="M791.52,322.82c3.63-2.55,8.26-3.82,13.87-3.82h10.22v-3.09c0-2.72-0.7-4.93-2.1-6.63c-1.4-1.7-3.82-2.55-7.25-2.55
				s-5.89,0.71-7.36,2.12c-1.47,1.42-2.21,3.06-2.21,4.92v0.21h-7.94v-0.21c0-3.58,1.6-6.7,4.79-9.38s7.51-4.01,12.94-4.01
				s9.65,1.3,12.64,3.91c2.99,2.6,4.49,6.48,4.49,11.63v20.61c0,1.86,0.14,3.61,0.43,5.26c0.29,1.65,0.69,3.1,1.2,4.36v0.69h-7.73
				c-0.4-0.71-0.77-1.65-1.09-2.79c-0.33-1.14-0.54-2.29-0.62-3.43c-1.06,1.86-2.77,3.51-5.13,4.94s-5.4,2.15-9.12,2.15
				c-4.29,0-7.94-1.22-10.95-3.65c-3.01-2.43-4.51-5.94-4.51-10.52S787.88,325.37,791.52,322.82z M796.28,339.13
				c1.49,1.46,3.81,2.19,6.96,2.19s6-1.09,8.54-3.26c2.55-2.17,3.82-4.48,3.82-6.91v-6.48h-9.36c-4.01,0-7.04,0.76-9.1,2.28
				s-3.09,3.56-3.09,6.14S794.79,337.67,796.28,339.13z"/>
			<path d="M829.68,301.65h25.76v6.1h-25.76V301.65z M837.76,305.35v-1.29v-13.57h7.99v45.16c0,2,0.4,3.43,1.2,4.29
				c0.8,0.86,2.06,1.29,3.78,1.29c0.8,0,1.59-0.09,2.36-0.26c0.77-0.17,1.56-0.4,2.36-0.69v6.53c-0.74,0.34-1.72,0.64-2.92,0.9
				s-2.52,0.39-3.95,0.39c-3.29,0-5.92-1-7.88-3c-1.96-2-2.94-5.15-2.94-9.45V305.35z"/>
			<path d="M863.51,301.65h7.99v29.24c0,3.61,0.81,6.19,2.42,7.75c1.62,1.56,3.91,2.34,6.89,2.34c2.55,0,4.79-0.69,6.74-2.06
				s3.46-3.15,4.55-5.32v-31.94h7.99v45.16h-7.21l-0.34-5.8h-0.26c-1.63,2.06-3.63,3.69-5.99,4.87c-2.36,1.19-4.97,1.78-7.84,1.78
				c-4.55,0-8.18-1.29-10.88-3.88c-2.7-2.59-4.06-6.92-4.06-12.99V301.65z"/>
			<path d="M912.8,301.65h7.21l0.34,5.8h0.26c1.14-1.89,2.65-3.54,4.51-4.96c1.86-1.42,4.08-2.12,6.65-2.12
				c0.63,0,1.29,0.07,1.98,0.21c0.69,0.14,1.17,0.27,1.46,0.39v7.38c-0.57-0.11-1.17-0.2-1.8-0.26c-0.63-0.06-1.32-0.09-2.06-0.09
				c-2.58,0-4.77,0.67-6.57,2.02c-1.8,1.35-3.13,3.02-3.99,5.02v31.77h-7.99V301.65z"/>
			<path d="M940.15,323.55c0-6.81,1.87-12.38,5.6-16.7c3.73-4.32,8.68-6.48,14.83-6.48c6.15,0,10.89,2.02,14.21,6.05
				c3.32,4.04,4.98,9.49,4.98,16.36v3.26h-34.73v-6.35h26.7v-1.03c0-3.26-0.93-6.04-2.79-8.33c-1.86-2.29-4.54-3.43-8.03-3.43
				c-4.24,0-7.4,1.61-9.49,4.83c-2.09,3.22-3.13,7.16-3.13,11.83v1.37c0,4.67,1.1,8.61,3.31,11.83c2.2,3.22,5.62,4.83,10.26,4.83
				c2.86,0,5.32-0.63,7.38-1.89c2.06-1.26,3.74-2.75,5.02-4.46l5.15,4.08c-1.43,2.15-3.64,4.15-6.63,6.01
				c-2.99,1.86-6.63,2.79-10.93,2.79c-7.01,0-12.39-2.16-16.12-6.48c-3.74-4.32-5.6-9.89-5.6-16.7V323.55z"/>
		</g>
	</g>
</g>
</svg>
