<svg id="Group_25225" data-name="Group 25225" xmlns="http://www.w3.org/2000/svg" width="60" height="60" viewBox="0 0 60 60">
  <circle id="Ellipse_522" data-name="Ellipse 522" cx="30" cy="30" r="30" fill="#f47321"/>
  <path id="f1695d30d4c63ea4f9fffb8c1dc73e54" d="M24.451,2H5.962A3.966,3.966,0,0,0,2,5.962V7.51a3.943,3.943,0,0,0,.336,1.585c.011.028.029.051.042.078a3.95,3.95,0,0,0,.783,1.138l8.084,8.084v8.7a1.321,1.321,0,0,0,1.911,1.181l5.283-2.641a1.321,1.321,0,0,0,.73-1.181V18.395l8.084-8.084a3.951,3.951,0,0,0,.782-1.138c.013-.027.031-.051.042-.079a3.942,3.942,0,0,0,.336-1.585V5.962A3.966,3.966,0,0,0,24.451,2Zm1.321,5.283H4.641V5.962A1.322,1.322,0,0,1,5.962,4.641H24.451a1.322,1.322,0,0,1,1.321,1.321Z" transform="translate(14.642 14.642)" fill="#fff"/>
</svg>
