<svg id="_6ce9ba23607830842da500ce7e45eddf" data-name="6ce9ba23607830842da500ce7e45eddf" xmlns="http://www.w3.org/2000/svg" width="18.353" height="20.975" viewBox="0 0 18.353 20.975">
  <path id="Path_39792" data-name="Path 39792" d="M13.109,3.283V5.236a1.243,1.243,0,0,0,.5.881A6.545,6.545,0,1,1,2.622,10.91,6.5,6.5,0,0,1,4.739,6.117a1.2,1.2,0,0,0,.5-.86V3.283c0-.362-.267-.531-.582-.353a9.177,9.177,0,1,0,9.03,0C13.377,2.751,13.109,2.92,13.109,3.283Z" transform="translate(0 0.889)" fill="#045fa0" fill-rule="evenodd"/>
  <path id="Path_39793" data-name="Path 39793" d="M7.311,9.177A1.31,1.31,0,0,0,8.622,7.866V1.311A1.311,1.311,0,1,0,6,1.311V7.866A1.31,1.31,0,0,0,7.311,9.177Z" transform="translate(1.866)" fill="#045fa0" fill-rule="evenodd"/>
</svg>
