<svg xmlns="http://www.w3.org/2000/svg" width="13" height="13" viewBox="0 0 13 13">
  <g id="Group_25848" data-name="Group 25848" transform="translate(-167 -428)">
    <circle id="Ellipse_389" data-name="Ellipse 389" cx="6.5" cy="6.5" r="6.5" transform="translate(167 428)" fill="#045FA0"/>
    <path id="Icon_ionic-ios-arrow-round-forward" data-name="Icon ionic-ios-arrow-round-forward" d="M13.2,11.358a.379.379,0,0,0,0,.534l1.765,1.767H8.249a.377.377,0,0,0,0,.755h6.713L13.2,16.182a.382.382,0,0,0,0,.534.376.376,0,0,0,.531,0L16.123,14.3h0a.424.424,0,0,0,.078-.119.36.36,0,0,0,.029-.145.378.378,0,0,0-.107-.264l-2.391-2.409A.37.37,0,0,0,13.2,11.358Z" transform="matrix(0.695, -0.719, 0.719, 0.695, 154.976, 433.418)" fill="#fff"/>
  </g>
</svg>
